
<svg width="100" height="300" viewBox="0 0 100 300" fill="none" xmlns="http://www.w3.org/2000/svg">
  <path d="M50 0C40 0 35 5 35 15V50C25 60 20 80 20 100V280C20 290 30 300 40 300H60C70 300 80 290 80 280V100C80 80 75 60 65 50V15C65 5 60 0 50 0Z" fill="#9b87f5"/>
  <path d="M40 15C40 10 45 5 50 5C55 5 60 10 60 15V45H40V15Z" fill="#d6bcfa"/>
  <path d="M25 100C25 85 30 70 40 60H60C70 70 75 85 75 100V280C75 287.5 67.5 295 60 295H40C32.5 295 25 287.5 25 280V100Z" fill="#d6bcfa" fill-opacity="0.5"/>
</svg>
