
<svg width="150" height="200" viewBox="0 0 150 200" fill="none" xmlns="http://www.w3.org/2000/svg">
  <rect x="45" y="150" width="60" height="50" rx="5" fill="#9b87f5"/>
  <rect x="50" y="155" width="50" height="40" rx="3" fill="#D6BCFA" fill-opacity="0.5"/>
  <path d="M75 150C75 150 65 120 55 100C45 80 35 75 35 60C35 45 45 40 55 45C65 50 65 70 65 80C65 80 65 50 75 40C85 30 100 35 100 50C100 65 90 80 85 90C80 100 75 150 75 150Z" fill="#7E69AB"/>
  <path d="M75 140C75 140 85 110 95 90C105 70 115 65 115 50C115 35 105 30 95 35C85 40 85 60 85 70C85 70 85 40 75 30C65 20 50 25 50 40C50 55 60 70 65 80C70 90 75 140 75 140Z" fill="#7E69AB"/>
</svg>
